<svg width="41" height="59" viewBox="0 0 41 59" fill="none" xmlns="http://www.w3.org/2000/svg">
<path d="M15.2897 58.6354C17.1657 58.6354 18.6865 57.1924 18.6865 55.4125C18.6865 53.6325 17.1657 52.1895 15.2897 52.1895C13.4136 52.1895 11.8928 53.6325 11.8928 55.4125C11.8928 57.1924 13.4136 58.6354 15.2897 58.6354Z" fill="#EE24FF"/>
<g filter="url(#filter0_d_17_16)">
<path d="M21.7157 0.0951385C17.5248 -0.353393 13.3178 0.796033 10.0201 3.29055C6.72243 5.78507 4.60421 9.42035 4.13148 13.3967C3.14705 21.6769 7.74476 39.6577 16.1273 47.101C20.0742 32.8403 33.905 24.3816 35.7351 16.779C37.6906 8.65546 30.4428 1.02916 21.7157 0.0951385Z" fill="#EE24FF"/>
<path d="M10.3218 3.68932C13.5158 1.27318 17.5954 0.157016 21.6625 0.592299C25.9017 1.046 29.7798 3.12649 32.355 6.07022C34.9271 9.01035 36.182 12.786 35.249 16.662C34.8173 18.4554 33.665 20.3402 32.0591 22.4125C30.9111 23.894 29.559 25.4378 28.1122 27.0896C27.5363 27.7472 26.9454 28.422 26.3463 29.1167C22.3134 33.7939 17.9781 39.3053 15.8738 46.1838C12.0595 42.4894 9.05674 36.5269 7.09284 30.4098C5.03007 23.9848 4.14753 17.4968 4.62798 13.4557C5.08408 9.61928 7.12854 6.10481 10.3218 3.68932Z" stroke="black"/>
</g>
<path d="M20.079 18.0308C22.9432 18.0308 25.2652 15.8278 25.2652 13.1102C25.2652 10.3926 22.9432 8.18954 20.079 8.18954C17.2147 8.18954 14.8928 10.3926 14.8928 13.1102C14.8928 15.8278 17.2147 18.0308 20.079 18.0308Z" fill="white"/>
<defs>
<filter id="filter0_d_17_16" x="0" y="0" width="40.0566" height="55.101" filterUnits="userSpaceOnUse" color-interpolation-filters="sRGB">
<feFlood flood-opacity="0" result="BackgroundImageFix"/>
<feColorMatrix in="SourceAlpha" type="matrix" values="0 0 0 0 0 0 0 0 0 0 0 0 0 0 0 0 0 0 127 0" result="hardAlpha"/>
<feOffset dy="4"/>
<feGaussianBlur stdDeviation="2"/>
<feComposite in2="hardAlpha" operator="out"/>
<feColorMatrix type="matrix" values="0 0 0 0 0 0 0 0 0 0 0 0 0 0 0 0 0 0 0.25 0"/>
<feBlend mode="normal" in2="BackgroundImageFix" result="effect1_dropShadow_17_16"/>
<feBlend mode="normal" in="SourceGraphic" in2="effect1_dropShadow_17_16" result="shape"/>
</filter>
</defs>
</svg>
